<svg id="Capa_1" enable-background="new 0 0 501.44 501.44" height="512" viewBox="0 0 501.44 501.44" width="512" xmlns="http://www.w3.org/2000/svg"><path d="m190.242 284.012c-1.906-1.906-2.688-4.788-2.171-8.034.53-3.331 2.383-6.762 5.142-9.521l178.081-178.081c5.668-5.668 13.528-6.998 17.555-2.97l27.81 27.81c4.027 4.028 2.698 11.887-2.97 17.555l-177.27 177.269c-5.585 5.585-13.318 6.971-17.402 3.119l-28.621-26.998c-.052-.048-.103-.098-.154-.149z" fill="#94443f"/><path d="m416.659 113.216-14.217-14.217-198.212 198.212 14.787 13.948c4.084 3.851 11.817 2.466 17.402-3.119l177.269-177.269c5.668-5.668 6.998-13.528 2.971-17.555z" fill="#452123"/><path d="m336.927 120.647h29.027v59.955h-29.027z" fill="#b45d4a" transform="matrix(.707 -.707 .707 .707 -3.573 292.623)"/><path d="m347.369 145.858h29.027v30.418h-29.027z" fill="#94443f" transform="matrix(.707 -.707 .707 .707 -7.899 303.066)"/><path d="m295.876 161.698h29.027v59.955h-29.027z" fill="#b45d4a" transform="matrix(.707 -.707 .707 .707 -44.624 275.619)"/><path d="m306.319 186.909h29.027v30.418h-29.027z" fill="#94443f" transform="matrix(.707 -.707 .707 .707 -48.95 286.061)"/><path d="m254.825 202.748h29.027v59.955h-29.027z" fill="#b45d4a" transform="matrix(.707 -.707 .707 .707 -85.675 258.615)"/><path d="m265.268 227.959h29.027v30.418h-29.027z" fill="#94443f" transform="matrix(.707 -.707 .707 .707 -90 269.059)"/><path d="m377.081 101.92c-.553-.554-.968-1.241-1.2-1.988l-8.728-28.179-.191-.45c-1.012-2.386.032-5.13 2.378-6.246 42.383-20.172 62.082-61.833 62.276-62.251.665-1.435 1.989-2.455 3.544-2.731 1.171-.208 2.372.02 3.383.643l.337.207 39.522 20.104c.453.23.866.531 1.227.892s.661.774.893 1.228l20.393 40.091c.592 1.164.687 2.54.26 3.774-.428 1.236-1.353 2.259-2.538 2.808-1.772.835-42.275 20.303-62.253 62.276-1.026 2.156-3.518 3.249-5.799 2.542l-28.965-8.972c-.749-.232-1.436-.646-1.99-1.2z" fill="#fcd1a6"/><path d="m436.385 132.1c19.977-41.973 60.481-61.441 62.253-62.276 1.185-.549 2.11-1.572 2.538-2.808.427-1.234.332-2.61-.26-3.774l-20.394-40.092c-.232-.455-.532-.868-.893-1.228-.018-.018-.04-.032-.059-.05l-91.269 91.269 11.33 11.33c.554.554 1.241.968 1.99 1.2l28.965 8.972c2.28.706 4.773-.387 5.799-2.543z" fill="#f3a871"/><path d="m72.048 469.234-39.841-39.841c-42.941-42.941-42.941-112.812 0-155.753 23.597-23.597 56.368-35.98 89.911-33.973 8.822.527 16.681-5.144 18.688-13.487 3.553-14.774 11.159-28.266 21.993-39.015 20.011-19.856 48.488-27.955 76.177-21.666 6.045 1.373 10.551 6.434 11.215 12.597.665 6.163-2.657 12.067-8.27 14.698-3.241 1.519-6.129 3.534-8.584 5.989-16.6 16.6-10.473 50.776 13.38 74.629 19.936 19.936 46.908 27.988 65.593 19.582 5.411-2.435 11.758-1.331 16.028 2.787.064.061.128.124.191.187 4.12 4.12 5.382 10.316 3.18 15.729-4.07 10.008-9.994 18.979-17.608 26.667-10.709 10.811-24.15 18.418-38.87 21.998-8.352 2.031-14.018 9.893-13.471 18.696 2.089 33.64-10.287 66.509-33.957 90.179-42.943 42.939-112.813 42.939-155.755-.003z" fill="#fa676d"/><path d="m261.759 379.055c-.546-8.802 5.12-16.665 13.472-18.695 14.72-3.579 28.161-11.186 38.87-21.998 7.614-7.688 13.538-16.659 17.608-26.667 2.202-5.413.94-11.609-3.18-15.729-.063-.063-.127-.125-.191-.187-4.271-4.118-10.618-5.222-16.028-2.787-18.684 8.406-45.657.354-65.593-19.582-3.195-3.195-6.061-6.579-8.608-10.078l-185.981 185.982 19.921 19.921c42.941 42.941 112.812 42.941 155.753 0 23.669-23.671 36.046-56.539 33.957-90.18z" fill="#f92f3e"/><path d="m194.281 337.75-30.59-30.59c-5.668-5.668-5.668-14.858 0-20.525 5.668-5.668 14.857-5.668 20.525 0l30.59 30.59c5.668 5.668 5.668 14.857 0 20.525s-14.857 5.668-20.525 0z" fill="#f3f5fb"/><path d="m214.806 317.225-15.295-15.295-20.525 20.525 15.295 15.295c5.668 5.668 14.857 5.668 20.525 0s5.668-14.858 0-20.525z" fill="#ced3df"/><path d="m148.396 383.635-30.59-30.59c-5.668-5.668-5.668-14.858 0-20.525 5.668-5.668 14.857-5.668 20.525 0l30.59 30.59c5.668 5.668 5.668 14.857 0 20.525-5.667 5.668-14.857 5.668-20.525 0z" fill="#f3f5fb"/><path d="m168.921 363.109-15.295-15.295-20.525 20.525 15.295 15.295c5.668 5.668 14.857 5.668 20.525 0 5.668-5.667 5.668-14.857 0-20.525z" fill="#ced3df"/></svg>