<svg height="512" viewBox="0 0 64 64" width="512" xmlns="http://www.w3.org/2000/svg"><g id="Rock_hand" data-name="Rock hand"><path d="m44 8v33a1.969 1.969 0 0 1 -.4 1.2l-3.2 4.27a1.969 1.969 0 0 0 -.4 1.2v3.33h-16v-5l-2.86-2.86-1.14-3.14v-36a2.006 2.006 0 0 1 2-2h2a2.006 2.006 0 0 1 2 2v15h12v-11a2.006 2.006 0 0 1 2-2h2a2.006 2.006 0 0 1 2 2z" fill="#c0ab91"/><path d="m24 59h16v3h-16z" fill="#c0ab91"/><path d="m21 51h22v8h-22z" fill="#3e3d42"/><g fill="#ffde17"><circle cx="32" cy="55" r="2"/><path d="m21 57-4-1v-2l4-1z"/><path d="m43 53 4 1v2l-4 1z"/></g><rect fill="#a78966" height="15" rx="2" width="6" x="32" y="18"/><rect fill="#a78966" height="15" rx="2" width="6" x="26" y="18"/><path d="m17 33h14v6h-14z" fill="#a78966"/><path d="m33.168 45.555a1 1 0 0 0 .832.445h4a1 1 0 0 0 0-2h-3.465l-1.7-2.555a1 1 0 0 0 -1.664 1.11z"/><path d="m26 46h4a1 1 0 0 0 0-2h-4a1 1 0 0 0 0 2z"/><path d="m35 55a3 3 0 1 0 -3 3 3 3 0 0 0 3-3zm-3 1a1 1 0 1 1 1-1 1 1 0 0 1 -1 1z"/><path d="m47.242 53.03-3.242-.811v-1.219a1 1 0 0 0 -1-1h-2v-2.33a.967.967 0 0 1 .2-.6l3.193-4.261a2.953 2.953 0 0 0 .607-1.809v-33a3 3 0 0 0 -3-3h-2a3 3 0 0 0 -3 3v9.184a2.966 2.966 0 0 0 -1-.184h-2a2.981 2.981 0 0 0 -2 .78 2.981 2.981 0 0 0 -2-.78h-2a2.966 2.966 0 0 0 -1 .184v-13.184a3 3 0 0 0 -3-3h-2a3 3 0 0 0 -3 3v28a3 3 0 0 0 -3 3v2a3 3 0 0 0 3 3v1.41a2.974 2.974 0 0 0 .677 1.894l3.1 3.785a.982.982 0 0 1 .22.621v2.29h-1.997a1 1 0 0 0 -1 1v1.219l-3.242.811a1 1 0 0 0 -.758.97v2a1 1 0 0 0 .758.97l3.242.811v1.219a1 1 0 0 0 1 1h2v2a1 1 0 0 0 1 1h16a1 1 0 0 0 1-1v-2h2a1 1 0 0 0 1-1v-1.219l3.242-.811a1 1 0 0 0 .758-.97v-2a1 1 0 0 0 -.758-.97zm-13.242-34.03h2a1 1 0 0 1 1 1v11a1 1 0 0 1 -1 1h-2a1 1 0 0 1 -1-1v-11a1 1 0 0 1 1-1zm-6 0h2a1 1 0 0 1 1 1v11a1 1 0 0 1 -1 1h-2a1 1 0 0 1 -1-1v-11a1 1 0 0 1 1-1zm-7-15a1 1 0 0 1 1-1h2a1 1 0 0 1 1 1v27a2.966 2.966 0 0 0 .184 1h-4.184zm-3 33v-2a1 1 0 0 1 1-1h10a1 1 0 0 1 1 1v2a1 1 0 0 1 -1 1h-10a1 1 0 0 1 -1-1zm6.323 8.816-3.1-3.784a.984.984 0 0 1 -.223-.622v-1.41h8a3 3 0 0 0 3-3v-2a2.967 2.967 0 0 0 -.4-1.471 3.078 3.078 0 0 0 .4-.309 2.981 2.981 0 0 0 2 .78h2a3 3 0 0 0 3-3v-23a1 1 0 0 1 1-1h2a1 1 0 0 1 1 1v33a.969.969 0 0 1 -.2.6l-3.192 4.26a2.945 2.945 0 0 0 -.608 1.81v2.33h-14v-2.29a2.976 2.976 0 0 0 -.677-1.894zm-6.323 9.403v-.438l2-.5v1.438zm21 5.781h-14v-1h14zm3-3h-20v-6h20zm4-2.781-2 .5v-1.438l2 .5z"/><path d="m40 54h-3a1 1 0 0 0 0 2h3a1 1 0 0 0 0-2z"/><path d="m27 54h-1a1 1 0 0 0 0 2h1a1 1 0 0 0 0-2z"/></g></svg>