<svg id="icons" enable-background="new 0 0 64 64" height="512" viewBox="0 0 64 64" width="512" xmlns="http://www.w3.org/2000/svg"><path d="m39.5 16c.55 0 1 .449 1 1v3c0 .549-.45 1-1 1h-6c-.55 0-1.45 0-2 0h-6c-.55 0-1.45 0-2 0h-6c-.55 0-1-.451-1-1v-3c0-.551.45-1 1-1z" fill="#545c66"/><path d="m48.5 1h-40c-2.2 0-4 1.801-4 4v8c0 2.201 1.8 4 4 4h8 24 8c2.2 0 4-1.799 4-4v-8c0-2.199-1.8-4-4-4z" fill="#656d78"/><path d="m46.5 60c.55 0 1 .449 1 1v1c0 .549-.45 1-1 1h-5c-.55 0-1-.451-1-1v-1c0-.551.45-1 1-1z" fill="#545c66"/><path d="m15.5 60c.55 0 1 .449 1 1v1c0 .549-.45 1-1 1h-5c-.55 0-1-.451-1-1v-1c0-.551.45-1 1-1z" fill="#545c66"/><path d="m50.49 53c.55 0 1 .451 1 1v6c0 .551-.45 1-1 1h-1.99c-.55 0-1.45 0-2 0h-5c-.55 0-1.45 0-2 0h-22c-.55 0-1.45 0-2 0h-5c-.55 0-1.45 0-2 0h-1.99c-.55 0-1-.449-1-1v-6c0-.549.45-1 1-1h14.36 2 11.26 2z" fill="#656d78"/><path d="m50.5 25.99c-3.52 0-6.55 2.051-8 5.01 1.45 2.971 4.48 5.01 8 5.01s6.55-2.039 8-5.01c-1.45-2.959-4.48-5.01-8-5.01z" fill="#e6e9ed"/><path d="m50.5 28c1.66 0 3 1.34 3 3s-1.34 3-3 3c-1.65 0-3-1.34-3-3s1.35-3 3-3z" fill="#5d9cec"/><path d="m24.5 31.689c1.25-.449 2.6-.689 4-.689s2.74.24 3.98.68c4.67 1.64 8.02 6.08 8.02 11.32 0 4.17-2.13 7.85-5.37 10h-13.26c-3.23-2.15-5.37-5.83-5.37-10 0-5.221 3.34-9.67 8-11.311z" fill="#5d9cec"/><path d="m32.48 31.68c-1.24-.44-2.58-.68-3.98-.68-.509 0-1.008.043-1.501.105.858.107 1.69.295 2.479.574 4.67 1.641 8.02 6.08 8.02 11.32 0 4.17-2.13 7.85-5.37 10h3.003c3.24-2.15 5.37-5.83 5.37-10-.001-5.239-3.351-9.679-8.021-11.319z" fill="#4a89dc"/><path d="m32.5 21v10.631l-.02.049c-1.24-.44-2.58-.68-3.98-.68s-2.75.24-4 .689v-10.689z" fill="#434a54"/><g fill="#aab2bd"><path d="m43.5 6.01c1.66 0 3 1.34 3 3 0 1.65-1.34 3-3 3-1.65 0-3-1.35-3-3 0-1.66 1.35-3 3-3z"/><path d="m13.5 6.01c1.66 0 3 1.34 3 3 0 1.65-1.34 3-3 3-1.65 0-3-1.35-3-3 0-1.66 1.35-3 3-3z"/><path d="m28.5 6.01c1.66 0 3 1.34 3 3 0 1.65-1.34 3-3 3-1.65 0-3-1.35-3-3 0-1.66 1.35-3 3-3z"/></g><path d="m50.5 37.012c-3.809 0-7.218-2.135-8.898-5.572-.136-.277-.136-.602 0-.879 1.681-3.438 5.091-5.574 8.898-5.574 3.811 0 7.22 2.137 8.898 5.576.136.275.136.6 0 .877-1.677 3.437-5.087 5.572-8.898 5.572zm-6.87-6.012c1.408 2.488 3.997 4.012 6.87 4.012 2.875 0 5.465-1.523 6.87-4.012-1.406-2.488-3.996-4.014-6.87-4.014-2.872 0-5.462 1.526-6.87 4.014z" fill="#e6e9ed"/><path d="m50.5 35.002c-2.206 0-4-1.795-4-4.002s1.794-4.002 4-4.002 4 1.795 4 4.002-1.794 4.002-4 4.002zm0-6.004c-1.103 0-2 .898-2 2.002s.897 2.002 2 2.002 2-.898 2-2.002-.897-2.002-2-2.002z" fill="#5d9cec"/></svg>